<svg xmlns="http://www.w3.org/2000/svg" fill="#ffffff" height="682.667" viewBox="0 0 512 512" width="682.667" xmlns:v="https://vecta.io/nano"><path d="M435.922 74.352C387.824 26.434 323.84.027 255.742 0 187.797 0 123.711 26.383 75.297 74.289 26.797 122.277.063 186.051 0 253.629v.078.047c.008 40.902 10.754 82.164 31.152 119.828L.699 512l140.012-31.848c35.461 17.871 75.027 27.293 114.934 27.309h.102c67.934 0 132.02-26.387 180.441-74.297 48.543-48.027 75.289-111.719 75.32-179.34.02-67.145-26.82-130.883-75.586-179.473zM255.742 467.5h-.09c-35.832-.016-71.336-9.012-102.668-26.023l-6.621-3.594-93.102 21.176 20.223-91.906-3.898-6.723c-19.383-33.426-29.625-70.324-29.625-106.719.074-117.801 96.863-213.75 215.773-213.75 57.445.023 111.422 22.293 151.984 62.699 41.176 41.031 63.844 94.711 63.824 151.152C471.495 371.64 374.687 467.5 255.741 467.5zm-69.59-325.637h-11.211c-3.902 0-10.238 1.461-15.598 7.293s-20.477 19.941-20.477 48.629 20.965 56.406 23.887 60.301 40.469 64.641 99.93 88.012c49.418 19.422 59.477 15.559 70.199 14.586s34.613-14.102 39.488-27.715 4.875-25.285 3.414-27.723c-1.465-2.43-5.367-3.887-11.215-6.801s-34.523-17.262-39.887-19.211c-5.363-1.941-9.262-2.914-13.164 2.926-3.902 5.828-15.391 19.313-18.805 23.203s-6.824 4.383-12.676 1.465c-5.852-2.926-24.5-9.191-46.848-29.051-17.395-15.457-29.465-35.168-32.879-41.004s-.363-8.988 2.57-11.898c2.629-2.609 6.18-6.18 9.105-9.582s3.754-5.836 5.707-9.727.973-7.297-.488-10.211-12.691-31.75-17.895-43.281h.004c-4.383-9.711-8.996-10.039-13.164-10.211zm0 0"/></svg>